<?xml version="1.0" encoding="UTF-8" standalone="no"?>
<svg
   version="1.0"
   width="650pt"
   height="650pt"
   viewBox="0 0 650 649.99999"
   preserveAspectRatio="xMidYMid"
   id="svg18"
   sodipodi:docname="xdr-gtk.svg"
   inkscape:version="1.2.2 (b0a8486541, 2022-12-01)"
   xmlns:inkscape="http://www.inkscape.org/namespaces/inkscape"
   xmlns:sodipodi="http://sodipodi.sourceforge.net/DTD/sodipodi-0.dtd"
   xmlns="http://www.w3.org/2000/svg"
   xmlns:svg="http://www.w3.org/2000/svg">
  <defs
     id="defs22" />
  <sodipodi:namedview
     id="namedview20"
     pagecolor="#505050"
     bordercolor="#eeeeee"
     borderopacity="1"
     inkscape:showpageshadow="0"
     inkscape:pageopacity="0"
     inkscape:pagecheckerboard="0"
     inkscape:deskcolor="#505050"
     inkscape:document-units="pt"
     showgrid="false"
     inkscape:zoom="0.39923944"
     inkscape:cx="-234.1953"
     inkscape:cy="384.48105"
     inkscape:window-width="1920"
     inkscape:window-height="1178"
     inkscape:window-x="1920"
     inkscape:window-y="0"
     inkscape:window-maximized="1"
     inkscape:current-layer="svg18" />
  <g
     id="g873"
     transform="translate(17.35,19.49309)">
    <path
       d="m 70.15,1.0775744 c -3,1.2 -11.7,10.2999996 -21.5,22.3999996 -24.8,30.7 -41.4,69.6 -47,110.099996 -2.2,15.6 -2.2,43.6 0,59.4 6.6,48.6 28,93 60.5,125.9 8.1,8.2 14.4,10 20.8,6.1 4.5,-2.8 7.2,-7.6 7.2,-13.1 0,-4.3 -0.5,-5.1 -8.6,-14.5 -29.1,-33.6 -42.4,-60.8 -50.5,-102.9 -0.9,-4.7 -1.4,-15 -1.4,-31 0,-28.1 1.6,-38.7 9.1,-61.5 8.8,-26.399996 22.4,-49.699996 41.9,-71.499996 8.4,-9.4 9.5,-11.2 9.5,-15.9 0,-5.2999996 -1.5,-8.2999996 -6.1,-11.5999996 -4.4,-3.19999998 -9.1,-3.79999998 -13.9,-1.9 z"
       id="path2"
       style="fill:#8781ff;fill-opacity:1;stroke:none;stroke-width:0.1" />
    <path
       d="m 535.05,0.67757442 c -1.4,0.2 -4.1,1.89999998 -5.9,3.79999998 -2.6,2.6 -3.4,4.5 -3.8,8.2999996 -0.6,6.2 1,9.3 9.6,18.6 22.1,23.8 37.8,52.8 45.6,84.499996 4.7,18.8 5.1,22.7 5.1,47.6 0,27.9 -1.5,38.3 -9.2,61.5 -8.7,26.7 -22,49.2 -42.5,72.2 -8.1,9.1 -9.6,12.6 -8.4,19.2 1.3,6.9 11.8,12.4 18.6,9.8 5.8,-2.3 22.5,-21.1 34,-38.4 18.5,-27.9 30.9,-60.8 35.5,-94.4 2.2,-15.6 2.2,-43.6 0,-59.4 -4.8,-34.799996 -16.2,-65.399996 -35.2,-94.499996 -8.1,-12.3 -13.2,-18.7 -23.6,-29.4 -9.9,-10.09999958 -11.2,-10.69999958 -19.8,-9.39999958 z"
       id="path4"
       style="fill:#8781ff;fill-opacity:1;stroke:none;stroke-width:0.1" />
    <path
       d="m 271.15,7.1775744 c -6.4,3.2999996 -8.4,6.7999996 -9.8,17.8999996 -1.1,8.6 -4.8,41.8 -7.2,64.9 -0.5,5.2 -1.9,17.599996 -3,27.499996 -1,9.9 -2.7,25.4 -3.7,34.4 l -1.7,16.5 -2,-3 c -4.2,-5.9 -10.2,-10.8 -17.5,-14.2 l -7.4,-3.4 -40.1,-0.5 c -39.9,-0.6 -40.1,-0.6 -44.4,1.6 -5.4,2.8 -8.7,9 -7.6,14.7 0.9,4.8 5.7,10.1 10.2,11.3 2.1,0.6 17,1.1 33.2,1.2 47,0.2 43.4,-0.1 46.9,3.3 1.7,1.7 3.1,3.4 3.1,3.9 0,0.9 11.4,30.4 14.8,38.2 3.7,8.6 9,12.5 17.2,12.5 5.5,0 8.1,-1 11.8,-4.4 3.7,-3.3 5.3,-7.2 6.1,-14.9 l 0.8,-7.2 -5.4,-6 c -22.5,-24.9 -21.3,-63.6 2.6,-87.5 8.5,-8.5 19.6,-14.899996 29.8,-17.099996 3.2,-0.7 5.9,-1.3 6,-1.4 0.1,0 -0.6,-9.3 -1.7,-20.6 -1.1,-11.2 -2.7,-27.8 -3.5,-36.9 -1.7,-19 -2.6,-22.8 -6.1,-27 -5.4,-6.3999996 -13.4,-7.7999996 -21.4,-3.7999996 z"
       id="path6"
       style="fill:#ff5757;fill-opacity:1;stroke:none;stroke-width:0.1" />
    <path
       d="m 490.15,38.777574 c -4,0.7 -8.1,4.2 -10.2,8.9 -2.9,6.6 -1.8,10.1 6.2,19.2 18,20.4 27.7,38.299996 33.9,62.599996 4.6,18.3 5.3,42.6 1.6,61.3 -4.5,23.2 -16.8,48 -32.6,66.1 -8.7,10 -9.9,11.9 -9.9,16.9 0,8.6 5.6,14.2 14.1,14.2 6,0 9.5,-2.4 18.7,-13 18.9,-21.9 31.7,-47.8 37.8,-76.4 3.2,-15 4.3,-39.9 2.4,-55.7 -3.7,-32.4 -18.5,-65.899996 -40,-90.699996 -10.2,-11.8 -14.8,-14.6 -22,-13.4 z"
       id="path8"
       style="fill:#8781ff;fill-opacity:1;stroke:none;stroke-width:0.1" />
    <path
       d="m 114.65,40.877574 c -5.8,3.5 -19.6,20.2 -27.6,33.3 -10.6,17.4 -17.3,34.199996 -21.5,54.199996 -3.2,15 -4.3,39.9 -2.4,55.7 3.7,32.4 18.5,65.9 40,90.7 9.7,11.2 12.8,13.4 18.9,13.4 6.3,0 10.6,-2.9 13.3,-8.9 2.9,-6.6 1.8,-10.1 -6.2,-19.2 -21.3,-24.2 -32.8,-48.5 -37.1,-79.1 -1.6,-11.2 -0.5,-35.7 2,-47 5.5,-24 16.6,-46.099996 32.2,-63.899996 8.7,-10 9.9,-11.9 9.9,-16.9 0,-5.4 -2.2,-9.7 -6.3,-12.2 -4.1,-2.5 -11.2,-2.6 -15.2,-0.1 z"
       id="path10"
       style="fill:#8781ff;fill-opacity:1;stroke:none;stroke-width:0.1" />
    <path
       d="m 349.85,40.477574 c -4.4,1.5 -8.3,4.8 -10.2,8.6 -0.8,1.4 -2.7,10.8 -4.4,21 -4.6,28.4 -4.6,27.9 -2.8,27.9 0.8,0 5.2,1.9 9.8,4.199996 20.9,10.4 34.9,33.2 34.9,56.8 0,14 -5.4,29.3 -14.1,40 l -4.5,5.5 1.9,17.5 c 1.1,9.9 2.6,18.9 3.4,20.8 3.2,6.8 13.8,10.9 21.5,8.3 1.9,-0.6 4.9,-2.7 6.7,-4.5 3.6,-3.7 3.1,-2.4 15,-45.7 2.7,-9.7 5.5,-18.5 6.2,-19.7 2.9,-4.7 6,-5 41.9,-4.8 36.9,0.2 38,0 42.4,-5.6 2.1,-2.8 2.6,-4.6 2.6,-9.2 0,-5 -0.4,-6 -3.1,-8.7 -1.7,-1.7 -4.1,-3.4 -5.2,-3.8 -2.7,-1 -29,-1.6 -57.1,-1.2 -19.8,0.2 -21.3,0.4 -27.4,2.8 -8.3,3.3 -14.9,8.7 -18.7,15.1 -1.6,2.9 -3.3,5.2 -3.6,5.2 -0.3,0 -0.9,-3.5 -1.3,-7.8 -0.3,-4.2 -1.5,-16.3 -2.6,-26.7 -1.1,-10.5 -3.3,-33 -5,-49.999996 -1.7,-17.1 -3.5,-32.6 -4,-34.6 -1.4,-5 -4.6,-8.8 -9.4,-11 -4.8,-2.2 -7.7,-2.3 -12.9,-0.4 z"
       id="path12"
       style="fill:#ff5757;fill-opacity:1;stroke:none;stroke-width:5;stroke-dasharray:none" />
    <path
       d="m 301.25803,100.86082 c -33.915,7.14 -54.621,41.174 -45.458,74.375 3.927,14.161 14.875,28.679 25.823,34.51 2.975,1.547 5.355,3.332 5.355,4.046 0,0.595 -1.071,4.641 -2.499,8.925 -2.975,9.758 -23.324,75.208 -39.865,128.758 -6.902,22.491 -18.088,58.786 -24.871,80.682 -6.783,21.896 -18.326,59.143 -25.585,82.705 -7.259,23.562 -13.804,44.625 -14.399,46.648 l -1.309,3.927 h -33.082 c -18.088,0 -34.748,0.357 -36.89,0.833 -2.142,0.357 -6.188,2.856 -9.044,5.593 -5.474,5.355 -7.259,10.71 -5.95,17.969 0.952,5.117 7.021,12.257 12.257,14.399 3.213,1.428 39.151,1.666 207.655,1.666 196.112,0 204.085,-0.119 208.726,-2.261 11.543,-5.236 14.637,-20.944 6.069,-30.702 -6.426,-7.259 -7.616,-7.497 -46.053,-7.497 -18.921,0 -34.51,-0.238 -34.51,-0.595 0,-0.595 -9.163,-30.583 -32.725,-106.505 -41.888,-135.184 -73.661,-238.119 -75.089,-242.879 -0.357,-1.428 1.071,-2.975 4.641,-4.998 2.975,-1.785 7.854,-5.712 10.948,-8.806 20.23,-20.587 23.324,-51.646 7.497,-75.327 -13.566,-20.468 -37.961,-30.463996 -61.642,-25.466 z m 27.37,215.866 c 7.973,25.823 14.756,47.362 14.994,47.838 0.357,0.595 -13.447,0.952 -30.464,0.952 -29.274,0 -31.178,-0.119 -30.345,-2.142 0.952,-2.38 24.871,-79.73 27.727,-89.25 0.952,-3.451 2.142,-5.831 2.737,-5.355 0.476,0.476 7.378,22.134 15.351,47.957 z m 28.441,91.868 c 2.975,8.092 4.046,6.545 -20.111,27.37 -12.495,10.591 -23.086,19.516 -23.681,19.754 -0.714,0.238 -21.539,-17.136 -42.721,-35.581 -3.808,-3.332 -3.808,-3.451 -2.38,-8.806 l 1.428,-5.355 h 43.197 43.197 z m -75.684,73.542 c 0.476,0.357 -10.115,10.234 -23.562,21.777 -13.447,11.543 -24.395,20.706 -24.395,20.23 0,-0.595 17.017,-56.287 19.754,-64.379 0.238,-0.952 5.474,2.856 13.804,9.996 7.378,6.426 13.804,11.9 14.399,12.376 z m 101.507,10.234 c 5.474,17.612 9.996,32.249 9.996,32.487 0,0.238 -2.499,-1.904 -5.712,-4.76 -3.094,-2.856 -14.042,-12.376 -24.276,-21.063 l -18.564,-15.946 13.209,-11.662 c 7.378,-6.426 13.804,-11.543 14.399,-11.424 0.595,0.119 5.593,14.637 10.948,32.368 z m -38.794,43.792 c 16.065,13.685 30.226,25.823 31.535,27.132 2.261,2.023 0.476,2.142 -62.832,2.142 h -65.212 l 32.487,-27.846 c 17.85,-15.232 33.082,-27.489 33.677,-27.132 0.714,0.357 14.28,11.9 30.345,25.704 z"
       id="path14"
       style="fill:#ffffff;fill-opacity:1;stroke:#000000;stroke-width:10.234;stroke-dasharray:none;stroke-opacity:1" />
  </g>
</svg>
